<svg xmlns="http://www.w3.org/2000/svg" viewBox="0 0 1200 260" preserveAspectRatio="xMidYMid slice">
  <defs><linearGradient id="bg" x1="0" y1="0" x2="1" y2="1"><stop offset="0" stop-color="#2c0b0b"/><stop offset="0.55" stop-color="#500000"/><stop offset="1" stop-color="#7a1e24"/></linearGradient></defs>
  <rect width="1200" height="260" fill="url(#bg)"/>
  <g opacity=".22" stroke="#fff" fill="none"><path d="M0 60h1200M0 130h1200M0 200h1200"/><path d="M80 0v260M210 0v260M360 0v260M520 0v260M700 0v260M870 0v260M1030 0v260M1160 0v260"/></g>
  <circle cx="930" cy="128" r="102" fill="none" stroke="#ffffff" stroke-width="2" opacity=".52"/>
  <ellipse cx="930" cy="128" rx="102" ry="34" fill="none" stroke="#ffffff" opacity=".4"/>
  <ellipse cx="930" cy="128" rx="48" ry="102" fill="none" stroke="#ffffff" opacity=".33"/>
  <path d="M140 178C260 94 360 198 480 116S720 72 930 128" fill="none" stroke="#ffffff" stroke-width="3" opacity=".75"/>
  <g fill="#fff" opacity=".9"><circle cx="140" cy="178" r="5"/><circle cx="480" cy="116" r="5"/><circle cx="710" cy="84" r="4"/><circle cx="930" cy="128" r="6"/></g>
  <text x="54" y="88" fill="#fff" opacity=".92" font-family="Georgia,serif" font-size="28">Spatial Intelligence · Digital Earth · Health Geography</text>
  <text x="55" y="124" fill="#fff" opacity=".72" font-family="Arial,sans-serif" font-size="15">Geospatial data, mobility, social sensing, and resilient cities</text>
</svg>
